<mxfile host="app.diagrams.net" modified="2023-06-28T16:25:08.301Z" agent="Mozilla/5.0 (Windows NT 10.0; Win64; x64) AppleWebKit/537.36 (KHTML, like Gecko) Chrome/114.0.0.0 Safari/537.36" etag="DrEjU4TO9sVVx3AVd84g" version="21.5.1" type="github">
  <diagram name="Page-1" id="drrQ4DIsQp6mz2_PwpE8">
    <mxGraphModel dx="1500" dy="956" grid="1" gridSize="10" guides="1" tooltips="1" connect="1" arrows="1" fold="1" page="1" pageScale="1" pageWidth="1200" pageHeight="1920" math="0" shadow="0">
      <root>
        <mxCell id="0" />
        <mxCell id="1" parent="0" />
        <mxCell id="y-tZRomW3wRnPxOMZ4p1-2" value="" style="rounded=0;whiteSpace=wrap;html=1;" vertex="1" parent="1">
          <mxGeometry x="60" y="250" width="120" height="100" as="geometry" />
        </mxCell>
        <mxCell id="y-tZRomW3wRnPxOMZ4p1-3" value="&lt;font style=&quot;font-size: 16px;&quot;&gt;Light + BME + ETC&lt;/font&gt;" style="text;html=1;strokeColor=none;fillColor=none;align=center;verticalAlign=middle;whiteSpace=wrap;rounded=0;" vertex="1" parent="1">
          <mxGeometry x="90" y="285" width="60" height="30" as="geometry" />
        </mxCell>
        <mxCell id="y-tZRomW3wRnPxOMZ4p1-5" value="" style="endArrow=classic;html=1;rounded=0;exitX=1;exitY=0.5;exitDx=0;exitDy=0;entryX=0;entryY=0.5;entryDx=0;entryDy=0;strokeColor=#FFFFFF;" edge="1" parent="1" source="y-tZRomW3wRnPxOMZ4p1-2" target="y-tZRomW3wRnPxOMZ4p1-16">
          <mxGeometry width="50" height="50" relative="1" as="geometry">
            <mxPoint x="370" y="690" as="sourcePoint" />
            <mxPoint x="260" y="390" as="targetPoint" />
            <Array as="points">
              <mxPoint x="220" y="300" />
              <mxPoint x="220" y="385" />
            </Array>
          </mxGeometry>
        </mxCell>
        <mxCell id="y-tZRomW3wRnPxOMZ4p1-6" value="" style="endArrow=classic;html=1;rounded=0;exitX=1;exitY=0.25;exitDx=0;exitDy=0;entryX=0.5;entryY=0;entryDx=0;entryDy=0;fillColor=#a20025;strokeColor=#6F0000;" edge="1" parent="1" source="y-tZRomW3wRnPxOMZ4p1-2" target="y-tZRomW3wRnPxOMZ4p1-15">
          <mxGeometry width="50" height="50" relative="1" as="geometry">
            <mxPoint x="370" y="690" as="sourcePoint" />
            <mxPoint x="260" y="310" as="targetPoint" />
            <Array as="points">
              <mxPoint x="285" y="275" />
            </Array>
          </mxGeometry>
        </mxCell>
        <mxCell id="y-tZRomW3wRnPxOMZ4p1-7" value="" style="endArrow=classic;html=1;rounded=0;exitX=1;exitY=0.75;exitDx=0;exitDy=0;entryX=0;entryY=0.5;entryDx=0;entryDy=0;strokeColor=#EBF052;" edge="1" parent="1" source="y-tZRomW3wRnPxOMZ4p1-2" target="y-tZRomW3wRnPxOMZ4p1-17">
          <mxGeometry width="50" height="50" relative="1" as="geometry">
            <mxPoint x="370" y="690" as="sourcePoint" />
            <mxPoint x="285" y="430" as="targetPoint" />
            <Array as="points">
              <mxPoint x="210" y="325" />
              <mxPoint x="210" y="435" />
            </Array>
          </mxGeometry>
        </mxCell>
        <mxCell id="y-tZRomW3wRnPxOMZ4p1-14" value="" style="endArrow=classic;html=1;rounded=0;exitX=1;exitY=1;exitDx=0;exitDy=0;entryX=0;entryY=0.5;entryDx=0;entryDy=0;fillColor=#1ba1e2;strokeColor=#006EAF;" edge="1" parent="1" source="y-tZRomW3wRnPxOMZ4p1-2" target="y-tZRomW3wRnPxOMZ4p1-18">
          <mxGeometry width="50" height="50" relative="1" as="geometry">
            <mxPoint x="370" y="670" as="sourcePoint" />
            <mxPoint x="260" y="490" as="targetPoint" />
            <Array as="points">
              <mxPoint x="180" y="535" />
            </Array>
          </mxGeometry>
        </mxCell>
        <mxCell id="y-tZRomW3wRnPxOMZ4p1-15" value="" style="ellipse;whiteSpace=wrap;html=1;aspect=fixed;" vertex="1" parent="1">
          <mxGeometry x="270" y="320" width="30" height="30" as="geometry" />
        </mxCell>
        <mxCell id="y-tZRomW3wRnPxOMZ4p1-16" value="" style="ellipse;whiteSpace=wrap;html=1;aspect=fixed;" vertex="1" parent="1">
          <mxGeometry x="270" y="370" width="30" height="30" as="geometry" />
        </mxCell>
        <mxCell id="y-tZRomW3wRnPxOMZ4p1-17" value="" style="ellipse;whiteSpace=wrap;html=1;aspect=fixed;" vertex="1" parent="1">
          <mxGeometry x="270" y="420" width="30" height="30" as="geometry" />
        </mxCell>
        <mxCell id="y-tZRomW3wRnPxOMZ4p1-18" value="" style="ellipse;whiteSpace=wrap;html=1;aspect=fixed;" vertex="1" parent="1">
          <mxGeometry x="270" y="520" width="30" height="30" as="geometry" />
        </mxCell>
        <mxCell id="y-tZRomW3wRnPxOMZ4p1-22" value="1" style="text;html=1;strokeColor=none;fillColor=none;align=center;verticalAlign=middle;whiteSpace=wrap;rounded=0;" vertex="1" parent="1">
          <mxGeometry x="255" y="320" width="60" height="30" as="geometry" />
        </mxCell>
        <mxCell id="y-tZRomW3wRnPxOMZ4p1-23" value="3" style="text;html=1;strokeColor=none;fillColor=none;align=center;verticalAlign=middle;whiteSpace=wrap;rounded=0;" vertex="1" parent="1">
          <mxGeometry x="255" y="370" width="60" height="30" as="geometry" />
        </mxCell>
        <mxCell id="y-tZRomW3wRnPxOMZ4p1-24" value="5" style="text;html=1;strokeColor=none;fillColor=none;align=center;verticalAlign=middle;whiteSpace=wrap;rounded=0;" vertex="1" parent="1">
          <mxGeometry x="255" y="420" width="60" height="30" as="geometry" />
        </mxCell>
        <mxCell id="y-tZRomW3wRnPxOMZ4p1-25" value="9" style="text;html=1;strokeColor=none;fillColor=none;align=center;verticalAlign=middle;whiteSpace=wrap;rounded=0;" vertex="1" parent="1">
          <mxGeometry x="255" y="520" width="60" height="30" as="geometry" />
        </mxCell>
        <mxCell id="y-tZRomW3wRnPxOMZ4p1-41" style="edgeStyle=orthogonalEdgeStyle;rounded=0;orthogonalLoop=1;jettySize=auto;html=1;exitX=0;exitY=0;exitDx=0;exitDy=0;entryX=0.5;entryY=0;entryDx=0;entryDy=0;" edge="1" parent="1" source="y-tZRomW3wRnPxOMZ4p1-26" target="y-tZRomW3wRnPxOMZ4p1-27">
          <mxGeometry relative="1" as="geometry" />
        </mxCell>
        <mxCell id="y-tZRomW3wRnPxOMZ4p1-26" value="" style="ellipse;whiteSpace=wrap;html=1;aspect=fixed;" vertex="1" parent="1">
          <mxGeometry x="270" y="470" width="30" height="30" as="geometry" />
        </mxCell>
        <mxCell id="y-tZRomW3wRnPxOMZ4p1-27" value="7" style="text;html=1;strokeColor=none;fillColor=none;align=center;verticalAlign=middle;whiteSpace=wrap;rounded=0;" vertex="1" parent="1">
          <mxGeometry x="255" y="470" width="60" height="30" as="geometry" />
        </mxCell>
        <mxCell id="y-tZRomW3wRnPxOMZ4p1-28" value="11" style="text;html=1;strokeColor=none;fillColor=none;align=center;verticalAlign=middle;whiteSpace=wrap;rounded=0;" vertex="1" parent="1">
          <mxGeometry x="255" y="570" width="60" height="30" as="geometry" />
        </mxCell>
        <mxCell id="y-tZRomW3wRnPxOMZ4p1-29" value="13" style="text;html=1;strokeColor=none;fillColor=none;align=center;verticalAlign=middle;whiteSpace=wrap;rounded=0;" vertex="1" parent="1">
          <mxGeometry x="255" y="610" width="60" height="30" as="geometry" />
        </mxCell>
        <mxCell id="y-tZRomW3wRnPxOMZ4p1-31" value="" style="rounded=0;whiteSpace=wrap;html=1;" vertex="1" parent="1">
          <mxGeometry x="560" y="285" width="120" height="60" as="geometry" />
        </mxCell>
        <mxCell id="y-tZRomW3wRnPxOMZ4p1-32" value="&lt;font style=&quot;font-size: 16px;&quot;&gt;IPS7100&lt;/font&gt;" style="text;html=1;strokeColor=none;fillColor=none;align=center;verticalAlign=middle;whiteSpace=wrap;rounded=0;" vertex="1" parent="1">
          <mxGeometry x="590" y="300" width="60" height="30" as="geometry" />
        </mxCell>
        <mxCell id="y-tZRomW3wRnPxOMZ4p1-36" value="" style="ellipse;whiteSpace=wrap;html=1;aspect=fixed;" vertex="1" parent="1">
          <mxGeometry x="340" y="320" width="30" height="30" as="geometry" />
        </mxCell>
        <mxCell id="y-tZRomW3wRnPxOMZ4p1-37" value="" style="ellipse;whiteSpace=wrap;html=1;aspect=fixed;" vertex="1" parent="1">
          <mxGeometry x="340" y="370" width="30" height="30" as="geometry" />
        </mxCell>
        <mxCell id="y-tZRomW3wRnPxOMZ4p1-38" value="" style="ellipse;whiteSpace=wrap;html=1;aspect=fixed;" vertex="1" parent="1">
          <mxGeometry x="340" y="420" width="30" height="30" as="geometry" />
        </mxCell>
        <mxCell id="y-tZRomW3wRnPxOMZ4p1-39" value="" style="ellipse;whiteSpace=wrap;html=1;aspect=fixed;" vertex="1" parent="1">
          <mxGeometry x="340" y="470" width="30" height="30" as="geometry" />
        </mxCell>
        <mxCell id="y-tZRomW3wRnPxOMZ4p1-40" value="" style="ellipse;whiteSpace=wrap;html=1;aspect=fixed;" vertex="1" parent="1">
          <mxGeometry x="340" y="520" width="30" height="30" as="geometry" />
        </mxCell>
        <mxCell id="y-tZRomW3wRnPxOMZ4p1-43" value="2" style="text;html=1;strokeColor=none;fillColor=none;align=center;verticalAlign=middle;whiteSpace=wrap;rounded=0;" vertex="1" parent="1">
          <mxGeometry x="325" y="320" width="60" height="30" as="geometry" />
        </mxCell>
        <mxCell id="y-tZRomW3wRnPxOMZ4p1-44" value="4" style="text;html=1;strokeColor=none;fillColor=none;align=center;verticalAlign=middle;whiteSpace=wrap;rounded=0;" vertex="1" parent="1">
          <mxGeometry x="325" y="370" width="60" height="30" as="geometry" />
        </mxCell>
        <mxCell id="y-tZRomW3wRnPxOMZ4p1-45" value="6" style="text;html=1;strokeColor=none;fillColor=none;align=center;verticalAlign=middle;whiteSpace=wrap;rounded=0;" vertex="1" parent="1">
          <mxGeometry x="325" y="420" width="60" height="30" as="geometry" />
        </mxCell>
        <mxCell id="y-tZRomW3wRnPxOMZ4p1-46" value="8" style="text;html=1;strokeColor=none;fillColor=none;align=center;verticalAlign=middle;whiteSpace=wrap;rounded=0;" vertex="1" parent="1">
          <mxGeometry x="325" y="470" width="60" height="30" as="geometry" />
        </mxCell>
        <mxCell id="y-tZRomW3wRnPxOMZ4p1-47" value="10" style="text;html=1;strokeColor=none;fillColor=none;align=center;verticalAlign=middle;whiteSpace=wrap;rounded=0;" vertex="1" parent="1">
          <mxGeometry x="325" y="520" width="60" height="30" as="geometry" />
        </mxCell>
        <mxCell id="y-tZRomW3wRnPxOMZ4p1-50" value="" style="rounded=1;whiteSpace=wrap;html=1;" vertex="1" parent="1">
          <mxGeometry x="830" y="400" width="120" height="60" as="geometry" />
        </mxCell>
        <mxCell id="y-tZRomW3wRnPxOMZ4p1-51" value="&lt;font style=&quot;font-size: 16px;&quot;&gt;Rain Sensor&lt;/font&gt;" style="text;html=1;strokeColor=none;fillColor=none;align=center;verticalAlign=middle;whiteSpace=wrap;rounded=0;" vertex="1" parent="1">
          <mxGeometry x="860" y="415" width="60" height="30" as="geometry" />
        </mxCell>
        <mxCell id="y-tZRomW3wRnPxOMZ4p1-54" value="" style="endArrow=classic;html=1;rounded=0;exitX=0.25;exitY=0;exitDx=0;exitDy=0;entryX=1;entryY=0.5;entryDx=0;entryDy=0;fillColor=#a20025;strokeColor=#6F0000;" edge="1" parent="1" source="y-tZRomW3wRnPxOMZ4p1-50" target="y-tZRomW3wRnPxOMZ4p1-36">
          <mxGeometry width="50" height="50" relative="1" as="geometry">
            <mxPoint x="370" y="570" as="sourcePoint" />
            <mxPoint x="460" y="380" as="targetPoint" />
            <Array as="points">
              <mxPoint x="860" y="220" />
              <mxPoint x="420" y="220" />
              <mxPoint x="420" y="335" />
            </Array>
          </mxGeometry>
        </mxCell>
        <mxCell id="y-tZRomW3wRnPxOMZ4p1-55" value="" style="endArrow=classic;html=1;rounded=0;exitX=0;exitY=0.5;exitDx=0;exitDy=0;entryX=1;entryY=0.5;entryDx=0;entryDy=0;fillColor=#a20025;strokeColor=#6F0000;" edge="1" parent="1" source="y-tZRomW3wRnPxOMZ4p1-31" target="y-tZRomW3wRnPxOMZ4p1-37">
          <mxGeometry width="50" height="50" relative="1" as="geometry">
            <mxPoint x="370" y="570" as="sourcePoint" />
            <mxPoint x="420" y="410" as="targetPoint" />
            <Array as="points">
              <mxPoint x="520" y="315" />
              <mxPoint x="520" y="385" />
            </Array>
          </mxGeometry>
        </mxCell>
        <mxCell id="y-tZRomW3wRnPxOMZ4p1-56" value="" style="endArrow=classic;html=1;rounded=0;exitX=0.25;exitY=1;exitDx=0;exitDy=0;entryX=1;entryY=0.5;entryDx=0;entryDy=0;fillColor=#1ba1e2;strokeColor=#006EAF;" edge="1" parent="1" source="y-tZRomW3wRnPxOMZ4p1-31" target="y-tZRomW3wRnPxOMZ4p1-38">
          <mxGeometry width="50" height="50" relative="1" as="geometry">
            <mxPoint x="370" y="570" as="sourcePoint" />
            <mxPoint x="430" y="460" as="targetPoint" />
            <Array as="points">
              <mxPoint x="590" y="380" />
              <mxPoint x="560" y="380" />
              <mxPoint x="560" y="435" />
            </Array>
          </mxGeometry>
        </mxCell>
        <mxCell id="y-tZRomW3wRnPxOMZ4p1-57" value="" style="endArrow=classic;html=1;rounded=0;exitX=0.5;exitY=1;exitDx=0;exitDy=0;entryX=1;entryY=0.5;entryDx=0;entryDy=0;strokeColor=#EBF052;" edge="1" parent="1" source="y-tZRomW3wRnPxOMZ4p1-31" target="y-tZRomW3wRnPxOMZ4p1-39">
          <mxGeometry width="50" height="50" relative="1" as="geometry">
            <mxPoint x="370" y="570" as="sourcePoint" />
            <mxPoint x="440" y="530" as="targetPoint" />
            <Array as="points">
              <mxPoint x="620" y="390" />
              <mxPoint x="580" y="390" />
              <mxPoint x="580" y="485" />
            </Array>
          </mxGeometry>
        </mxCell>
        <mxCell id="y-tZRomW3wRnPxOMZ4p1-58" value="" style="endArrow=classic;html=1;rounded=0;exitX=0.75;exitY=1;exitDx=0;exitDy=0;entryX=1;entryY=0.5;entryDx=0;entryDy=0;" edge="1" parent="1" source="y-tZRomW3wRnPxOMZ4p1-31" target="y-tZRomW3wRnPxOMZ4p1-40">
          <mxGeometry width="50" height="50" relative="1" as="geometry">
            <mxPoint x="370" y="570" as="sourcePoint" />
            <mxPoint x="420" y="520" as="targetPoint" />
            <Array as="points">
              <mxPoint x="650" y="440" />
              <mxPoint x="610" y="440" />
              <mxPoint x="610" y="535" />
            </Array>
          </mxGeometry>
        </mxCell>
        <mxCell id="y-tZRomW3wRnPxOMZ4p1-59" value="" style="endArrow=classic;html=1;rounded=0;exitX=0;exitY=0.5;exitDx=0;exitDy=0;entryX=1;entryY=0.5;entryDx=0;entryDy=0;fillColor=#1ba1e2;strokeColor=#006EAF;" edge="1" parent="1" source="y-tZRomW3wRnPxOMZ4p1-50" target="y-tZRomW3wRnPxOMZ4p1-61">
          <mxGeometry width="50" height="50" relative="1" as="geometry">
            <mxPoint x="370" y="570" as="sourcePoint" />
            <mxPoint x="390" y="630" as="targetPoint" />
            <Array as="points">
              <mxPoint x="770" y="430" />
              <mxPoint x="770" y="625" />
            </Array>
          </mxGeometry>
        </mxCell>
        <mxCell id="y-tZRomW3wRnPxOMZ4p1-61" value="" style="ellipse;whiteSpace=wrap;html=1;aspect=fixed;" vertex="1" parent="1">
          <mxGeometry x="340" y="610" width="30" height="30" as="geometry" />
        </mxCell>
        <mxCell id="y-tZRomW3wRnPxOMZ4p1-62" value="12" style="text;html=1;strokeColor=none;fillColor=none;align=center;verticalAlign=middle;whiteSpace=wrap;rounded=0;" vertex="1" parent="1">
          <mxGeometry x="325" y="570" width="60" height="30" as="geometry" />
        </mxCell>
        <mxCell id="y-tZRomW3wRnPxOMZ4p1-63" value="14" style="text;html=1;strokeColor=none;fillColor=none;align=center;verticalAlign=middle;whiteSpace=wrap;rounded=0;" vertex="1" parent="1">
          <mxGeometry x="325" y="610" width="60" height="30" as="geometry" />
        </mxCell>
        <mxCell id="y-tZRomW3wRnPxOMZ4p1-67" value="" style="ellipse;whiteSpace=wrap;html=1;aspect=fixed;" vertex="1" parent="1">
          <mxGeometry x="270" y="660" width="30" height="30" as="geometry" />
        </mxCell>
        <mxCell id="y-tZRomW3wRnPxOMZ4p1-68" value="15" style="text;html=1;strokeColor=none;fillColor=none;align=center;verticalAlign=middle;whiteSpace=wrap;rounded=0;" vertex="1" parent="1">
          <mxGeometry x="255" y="660" width="60" height="30" as="geometry" />
        </mxCell>
        <mxCell id="y-tZRomW3wRnPxOMZ4p1-69" value="" style="endArrow=classic;html=1;rounded=0;exitX=0.25;exitY=1;exitDx=0;exitDy=0;entryX=0.5;entryY=1;entryDx=0;entryDy=0;strokeColor=#EBF052;" edge="1" parent="1" source="y-tZRomW3wRnPxOMZ4p1-50" target="y-tZRomW3wRnPxOMZ4p1-68">
          <mxGeometry width="50" height="50" relative="1" as="geometry">
            <mxPoint x="370" y="720" as="sourcePoint" />
            <mxPoint x="420" y="670" as="targetPoint" />
            <Array as="points">
              <mxPoint x="860" y="690" />
            </Array>
          </mxGeometry>
        </mxCell>
        <mxCell id="y-tZRomW3wRnPxOMZ4p1-70" value="16" style="text;html=1;strokeColor=none;fillColor=none;align=center;verticalAlign=middle;whiteSpace=wrap;rounded=0;" vertex="1" parent="1">
          <mxGeometry x="325" y="660" width="60" height="30" as="geometry" />
        </mxCell>
        <mxCell id="y-tZRomW3wRnPxOMZ4p1-72" value="" style="ellipse;whiteSpace=wrap;html=1;aspect=fixed;" vertex="1" parent="1">
          <mxGeometry x="270" y="710" width="30" height="30" as="geometry" />
        </mxCell>
        <mxCell id="y-tZRomW3wRnPxOMZ4p1-73" value="17" style="text;html=1;strokeColor=none;fillColor=none;align=center;verticalAlign=middle;whiteSpace=wrap;rounded=0;" vertex="1" parent="1">
          <mxGeometry x="255" y="710" width="60" height="30" as="geometry" />
        </mxCell>
        <mxCell id="y-tZRomW3wRnPxOMZ4p1-74" value="18" style="text;html=1;strokeColor=none;fillColor=none;align=center;verticalAlign=middle;whiteSpace=wrap;rounded=0;" vertex="1" parent="1">
          <mxGeometry x="325" y="710" width="60" height="30" as="geometry" />
        </mxCell>
        <mxCell id="y-tZRomW3wRnPxOMZ4p1-75" value="19&lt;br&gt;" style="text;html=1;strokeColor=none;fillColor=none;align=center;verticalAlign=middle;whiteSpace=wrap;rounded=0;" vertex="1" parent="1">
          <mxGeometry x="255" y="760" width="60" height="30" as="geometry" />
        </mxCell>
        <mxCell id="y-tZRomW3wRnPxOMZ4p1-80" value="20" style="text;html=1;strokeColor=none;fillColor=none;align=center;verticalAlign=middle;whiteSpace=wrap;rounded=0;" vertex="1" parent="1">
          <mxGeometry x="325" y="760" width="60" height="30" as="geometry" />
        </mxCell>
        <mxCell id="y-tZRomW3wRnPxOMZ4p1-81" value="21" style="text;html=1;strokeColor=none;fillColor=none;align=center;verticalAlign=middle;whiteSpace=wrap;rounded=0;" vertex="1" parent="1">
          <mxGeometry x="255" y="810" width="60" height="30" as="geometry" />
        </mxCell>
        <mxCell id="y-tZRomW3wRnPxOMZ4p1-82" value="22" style="text;html=1;strokeColor=none;fillColor=none;align=center;verticalAlign=middle;whiteSpace=wrap;rounded=0;" vertex="1" parent="1">
          <mxGeometry x="325" y="810" width="60" height="30" as="geometry" />
        </mxCell>
        <mxCell id="y-tZRomW3wRnPxOMZ4p1-83" value="23" style="text;html=1;strokeColor=none;fillColor=none;align=center;verticalAlign=middle;whiteSpace=wrap;rounded=0;" vertex="1" parent="1">
          <mxGeometry x="255" y="860" width="60" height="30" as="geometry" />
        </mxCell>
        <mxCell id="y-tZRomW3wRnPxOMZ4p1-84" value="24" style="text;html=1;strokeColor=none;fillColor=none;align=center;verticalAlign=middle;whiteSpace=wrap;rounded=0;" vertex="1" parent="1">
          <mxGeometry x="325" y="860" width="60" height="30" as="geometry" />
        </mxCell>
        <mxCell id="y-tZRomW3wRnPxOMZ4p1-85" value="25" style="text;html=1;strokeColor=none;fillColor=none;align=center;verticalAlign=middle;whiteSpace=wrap;rounded=0;" vertex="1" parent="1">
          <mxGeometry x="255" y="910" width="60" height="30" as="geometry" />
        </mxCell>
        <mxCell id="y-tZRomW3wRnPxOMZ4p1-86" value="26" style="text;html=1;strokeColor=none;fillColor=none;align=center;verticalAlign=middle;whiteSpace=wrap;rounded=0;" vertex="1" parent="1">
          <mxGeometry x="325" y="910" width="60" height="30" as="geometry" />
        </mxCell>
        <mxCell id="y-tZRomW3wRnPxOMZ4p1-88" value="" style="ellipse;whiteSpace=wrap;html=1;aspect=fixed;" vertex="1" parent="1">
          <mxGeometry x="270" y="960" width="30" height="30" as="geometry" />
        </mxCell>
        <mxCell id="y-tZRomW3wRnPxOMZ4p1-89" value="" style="ellipse;whiteSpace=wrap;html=1;aspect=fixed;" vertex="1" parent="1">
          <mxGeometry x="340" y="960" width="30" height="30" as="geometry" />
        </mxCell>
        <mxCell id="y-tZRomW3wRnPxOMZ4p1-90" value="27" style="text;html=1;strokeColor=none;fillColor=none;align=center;verticalAlign=middle;whiteSpace=wrap;rounded=0;" vertex="1" parent="1">
          <mxGeometry x="255" y="960" width="60" height="30" as="geometry" />
        </mxCell>
        <mxCell id="y-tZRomW3wRnPxOMZ4p1-91" value="28" style="text;html=1;strokeColor=none;fillColor=none;align=center;verticalAlign=middle;whiteSpace=wrap;rounded=0;" vertex="1" parent="1">
          <mxGeometry x="325" y="960" width="60" height="30" as="geometry" />
        </mxCell>
        <mxCell id="y-tZRomW3wRnPxOMZ4p1-92" value="29" style="text;html=1;strokeColor=none;fillColor=none;align=center;verticalAlign=middle;whiteSpace=wrap;rounded=0;" vertex="1" parent="1">
          <mxGeometry x="255" y="1010" width="60" height="30" as="geometry" />
        </mxCell>
        <mxCell id="y-tZRomW3wRnPxOMZ4p1-94" value="30" style="text;html=1;strokeColor=none;fillColor=none;align=center;verticalAlign=middle;whiteSpace=wrap;rounded=0;" vertex="1" parent="1">
          <mxGeometry x="325" y="1010" width="60" height="30" as="geometry" />
        </mxCell>
        <mxCell id="y-tZRomW3wRnPxOMZ4p1-95" value="31" style="text;html=1;strokeColor=none;fillColor=none;align=center;verticalAlign=middle;whiteSpace=wrap;rounded=0;" vertex="1" parent="1">
          <mxGeometry x="255" y="1060" width="60" height="30" as="geometry" />
        </mxCell>
        <mxCell id="y-tZRomW3wRnPxOMZ4p1-96" value="32" style="text;html=1;strokeColor=none;fillColor=none;align=center;verticalAlign=middle;whiteSpace=wrap;rounded=0;" vertex="1" parent="1">
          <mxGeometry x="325" y="1060" width="60" height="30" as="geometry" />
        </mxCell>
        <mxCell id="y-tZRomW3wRnPxOMZ4p1-97" value="" style="ellipse;whiteSpace=wrap;html=1;aspect=fixed;" vertex="1" parent="1">
          <mxGeometry x="270" y="1110" width="30" height="30" as="geometry" />
        </mxCell>
        <mxCell id="y-tZRomW3wRnPxOMZ4p1-98" value="33" style="text;html=1;strokeColor=none;fillColor=none;align=center;verticalAlign=middle;whiteSpace=wrap;rounded=0;" vertex="1" parent="1">
          <mxGeometry x="255" y="1110" width="60" height="30" as="geometry" />
        </mxCell>
        <mxCell id="y-tZRomW3wRnPxOMZ4p1-99" value="" style="endArrow=classic;html=1;rounded=0;exitX=0.417;exitY=1;exitDx=0;exitDy=0;exitPerimeter=0;entryX=1;entryY=0;entryDx=0;entryDy=0;" edge="1" parent="1" source="y-tZRomW3wRnPxOMZ4p1-50" target="y-tZRomW3wRnPxOMZ4p1-97">
          <mxGeometry width="50" height="50" relative="1" as="geometry">
            <mxPoint x="460" y="840" as="sourcePoint" />
            <mxPoint x="370" y="1200" as="targetPoint" />
            <Array as="points">
              <mxPoint x="880" y="1114" />
            </Array>
          </mxGeometry>
        </mxCell>
        <mxCell id="y-tZRomW3wRnPxOMZ4p1-100" value="34" style="text;html=1;strokeColor=none;fillColor=none;align=center;verticalAlign=middle;whiteSpace=wrap;rounded=0;" vertex="1" parent="1">
          <mxGeometry x="325" y="1110" width="60" height="30" as="geometry" />
        </mxCell>
        <mxCell id="y-tZRomW3wRnPxOMZ4p1-102" value="35" style="text;html=1;strokeColor=none;fillColor=none;align=center;verticalAlign=middle;whiteSpace=wrap;rounded=0;" vertex="1" parent="1">
          <mxGeometry x="255" y="1160" width="60" height="30" as="geometry" />
        </mxCell>
        <mxCell id="y-tZRomW3wRnPxOMZ4p1-103" value="36" style="text;html=1;strokeColor=none;fillColor=none;align=center;verticalAlign=middle;whiteSpace=wrap;rounded=0;" vertex="1" parent="1">
          <mxGeometry x="325" y="1160" width="60" height="30" as="geometry" />
        </mxCell>
        <mxCell id="y-tZRomW3wRnPxOMZ4p1-104" value="37" style="text;html=1;strokeColor=none;fillColor=none;align=center;verticalAlign=middle;whiteSpace=wrap;rounded=0;" vertex="1" parent="1">
          <mxGeometry x="255" y="1210" width="60" height="30" as="geometry" />
        </mxCell>
        <mxCell id="y-tZRomW3wRnPxOMZ4p1-105" value="38" style="text;html=1;strokeColor=none;fillColor=none;align=center;verticalAlign=middle;whiteSpace=wrap;rounded=0;" vertex="1" parent="1">
          <mxGeometry x="325" y="1210" width="60" height="30" as="geometry" />
        </mxCell>
        <mxCell id="y-tZRomW3wRnPxOMZ4p1-107" value="" style="ellipse;whiteSpace=wrap;html=1;aspect=fixed;" vertex="1" parent="1">
          <mxGeometry x="270" y="1260" width="30" height="30" as="geometry" />
        </mxCell>
        <mxCell id="y-tZRomW3wRnPxOMZ4p1-108" value="39" style="text;html=1;strokeColor=none;fillColor=none;align=center;verticalAlign=middle;whiteSpace=wrap;rounded=0;" vertex="1" parent="1">
          <mxGeometry x="255" y="1260" width="60" height="30" as="geometry" />
        </mxCell>
        <mxCell id="y-tZRomW3wRnPxOMZ4p1-110" value="40" style="ellipse;whiteSpace=wrap;html=1;aspect=fixed;" vertex="1" parent="1">
          <mxGeometry x="340" y="1260" width="30" height="30" as="geometry" />
        </mxCell>
        <mxCell id="y-tZRomW3wRnPxOMZ4p1-114" value="b/w&amp;nbsp;&lt;br&gt;Battery&amp;nbsp;&lt;br&gt;&amp;amp;&lt;br&gt;Ordroid" style="rounded=1;whiteSpace=wrap;html=1;" vertex="1" parent="1">
          <mxGeometry x="40" y="1440" width="60" height="60" as="geometry" />
        </mxCell>
        <mxCell id="y-tZRomW3wRnPxOMZ4p1-117" value="&lt;font style=&quot;font-size: 16px;&quot;&gt;INA219&lt;/font&gt;" style="rounded=1;whiteSpace=wrap;html=1;" vertex="1" parent="1">
          <mxGeometry x="100" y="1440" width="90" height="60" as="geometry" />
        </mxCell>
        <mxCell id="y-tZRomW3wRnPxOMZ4p1-118" value="" style="endArrow=classic;html=1;rounded=0;exitX=0.5;exitY=0;exitDx=0;exitDy=0;entryX=0;entryY=0.5;entryDx=0;entryDy=0;fillColor=#a20025;strokeColor=#6F0000;" edge="1" parent="1" source="y-tZRomW3wRnPxOMZ4p1-117" target="y-tZRomW3wRnPxOMZ4p1-72">
          <mxGeometry width="50" height="50" relative="1" as="geometry">
            <mxPoint x="460" y="1180" as="sourcePoint" />
            <mxPoint x="240" y="740" as="targetPoint" />
            <Array as="points">
              <mxPoint x="145" y="725" />
            </Array>
          </mxGeometry>
        </mxCell>
      </root>
    </mxGraphModel>
  </diagram>
</mxfile>
